<svg xmlns="http://www.w3.org/2000/svg" viewBox="0 0 64 64">
  <!-- Nền bo tròn màu gradient vàng -->
  <defs>
    <linearGradient id="gold" x1="0%" y1="0%" x2="100%" y2="100%">
      <stop offset="0%"   stop-color="#fbbf24"/>
      <stop offset="100%" stop-color="#d97706"/>
    </linearGradient>
  </defs>
  <rect width="64" height="64" rx="14" fill="url(#gold)"/>
  <!-- Icon đồng tiền vàng (từ Heroicons) scale lên 64x64 -->
  <g transform="translate(12, 12) scale(2)">
    <path fill="#1c1917" fill-rule="evenodd"
      d="M10 18a8 8 0 100-16 8 8 0 000 16zm1-13a1 1 0 10-2 0v.092a4.535 4.535 0 00-1.676.662C6.602 6.234 6 7.009 6 8c0 .99.602 1.765 1.324 2.246.48.32 1.054.545 1.676.662v1.941c-.391-.127-.68-.317-.843-.504a1 1 0 10-1.51 1.31c.562.649 1.413 1.077 2.353 1.253V15a1 1 0 102 0v-.092a4.535 4.535 0 001.676-.662C13.398 13.766 14 12.991 14 12c0-.99-.602-1.765-1.324-2.246A4.535 4.535 0 0011 9.092V7.151c.391.127.68.317.843.504a1 1 0 101.511-1.31c-.563-.649-1.413-1.077-2.354-1.253V5z"
      clip-rule="evenodd"/>
  </g>
</svg>
